<mxfile host="app.diagrams.net" modified="2022-09-24T09:51:37.444Z" agent="5.0 (Windows NT 10.0; Win64; x64) AppleWebKit/537.36 (KHTML, like Gecko) Chrome/105.0.0.0 Safari/537.36" version="20.3.6" etag="UkCadjWY1s0qPizXgpHV" type="github">
  <diagram id="R9k7ZN19FMF7jF0QfsAg" name="第 1 页">
    <mxGraphModel dx="1421" dy="786" grid="1" gridSize="10" guides="1" tooltips="1" connect="1" arrows="1" fold="1" page="1" pageScale="1" pageWidth="827" pageHeight="1169" math="0" shadow="0">
      <root>
        <mxCell id="0" />
        <mxCell id="1" parent="0" />
      </root>
    </mxGraphModel>
  </diagram>
</mxfile>
